<svg width="120" height="24" viewBox="0 0 120 24" fill="none" xmlns="http://www.w3.org/2000/svg">
<path d="M54.6002 8.7H45.5996V24H36.6V8.66866C36.6 2.51105 39.5239 0 45.5996 0H54.6002V8.7ZM72.5995 0C78.6734 0 81.6 2.50746 81.6 8.66866V24H72.5995V8.7H63.5998V24H54.6002V8.7H63.5998V0H72.5995Z" fill="black"/>
<path d="M24.6 15.3H9V0H0V15.3313C0 21.4925 2.93009 24 9.00752 24H24.5916C30.6735 24 33.6 21.489 33.6 15.3313V0H24.6V15.3Z" fill="black"/>
<path fill-rule="evenodd" clip-rule="evenodd" d="M110.993 0C117.071 0 120 2.50746 120 8.66866V15.3313C120 21.489 117.075 24 110.993 24H93.6075C87.5289 24 84.6 21.4925 84.6 15.3313V8.66866C84.6 2.51105 87.5289 0 93.6075 0H110.993ZM93.6 15.3H111V8.66866L93.6 8.7V15.3Z" fill="black"/>
</svg>
