<svg width="416" height="80" viewBox="0 0 416 80" fill="none" xmlns="http://www.w3.org/2000/svg">
<path d="M109.2 33.4H91.1993V64H73.2V33.3373C73.2 21.0221 79.0479 16 91.1993 16H109.2V33.4ZM145.199 16C157.347 16 163.2 21.0149 163.2 33.3373V64H145.199V33.4H127.2V64H109.2V33.4H127.2V16H145.199Z" fill="black"/>
<path d="M49.2 46.6H18V16H0V46.6627C0 58.9851 5.86018 64 18.015 64H49.1832C61.347 64 67.2 58.9779 67.2 46.6627V16H49.2V46.6Z" fill="black"/>
<path fill-rule="evenodd" clip-rule="evenodd" d="M221.987 16C234.142 16 240 21.0149 240 33.3373V46.6627C240 58.9779 234.149 64 221.987 64H187.215C175.058 64 169.2 58.9851 169.2 46.6627V33.3373C169.2 21.0221 175.058 16 187.215 16H221.987ZM187.2 46.6H222V33.3373L187.2 33.4V46.6Z" fill="black"/>
<rect x="287.2" y="16" width="1.6" height="48" fill="black"/>
<path fill-rule="evenodd" clip-rule="evenodd" d="M376 0C398.091 0 416 17.9086 416 40C416 62.0914 398.091 80 376 80C353.909 80 336 62.0914 336 40C336 17.9086 353.909 0 376 0ZM377.839 16.0398C365.617 16.0398 359.192 22.3231 359.192 31.5773C359.192 38.9679 362.714 43.3184 369.001 47.8062L358.088 64.0391H367.137L379.29 45.8734L375.077 43.0437C369.967 39.591 367.481 36.8944 367.48 31.093C367.48 25.9826 371.071 22.5297 377.908 22.5297H381.635L381.639 64.0391H389.996V16.0398H377.839Z" fill="black"/>
</svg>
