<svg xmlns="http://www.w3.org/2000/svg" width="16" height="16" viewBox="0 0 16 16"><path d="M14.4 0c0.56 0 0.84 0 1.054 0.109a1 1 0 0 1 0.437 0.437c0.109 0.214 0.109 0.494 0.109 1.054V14.4c0 0.56 0 0.84 -0.109 1.054a1 1 0 0 1 -0.437 0.437c-0.214 0.109 -0.494 0.109 -1.054 0.109H1.6c-0.56 0 -0.84 0 -1.054 -0.109a1 1 0 0 1 -0.437 -0.437c-0.109 -0.214 -0.109 -0.494 -0.109 -1.054V1.6c0 -0.56 0 -0.84 0.109 -1.054a1 1 0 0 1 0.437 -0.437c0.214 -0.109 0.494 -0.109 1.054 -0.109Z" fill="#000"/><path d="M10 9H6V5H4V9C4 10.4 4.65 11 6 11H10C11.35 11 12 10.4 12 9V5H10V9Z" fill="#fff"/></svg>
